<?xml version="1.0" encoding="UTF-8" standalone="no"?>
<!-- Created with Inkscape (http://www.inkscape.org/) -->

<svg
   width="1080"
   height="1920"
   viewBox="0 0 1080 1920"
   version="1.1"
   id="svg1"
   inkscape:version="1.3-alpha (391ce4f, 2023-04-03)"
   sodipodi:docname="spiral.svg"
   xmlns:inkscape="http://www.inkscape.org/namespaces/inkscape"
   xmlns:sodipodi="http://sodipodi.sourceforge.net/DTD/sodipodi-0.dtd"
   xmlns="http://www.w3.org/2000/svg"
   xmlns:svg="http://www.w3.org/2000/svg">
  <sodipodi:namedview
     id="namedview1"
     pagecolor="#505050"
     bordercolor="#ffffff"
     borderopacity="1"
     inkscape:showpageshadow="0"
     inkscape:pageopacity="0"
     inkscape:pagecheckerboard="1"
     inkscape:deskcolor="#262626"
     inkscape:document-units="mm"
     showguides="true"
     inkscape:zoom="0.840965"
     inkscape:cx="506.561"
     inkscape:cy="1081.5"
     inkscape:window-width="2560"
     inkscape:window-height="1384"
     inkscape:window-x="0"
     inkscape:window-y="508"
     inkscape:window-maximized="1"
     inkscape:current-layer="layer1">
    <sodipodi:guide
       position="540,1920"
       orientation="-1,0"
       id="guide1"
       inkscape:locked="false"
       inkscape:label=""
       inkscape:color="rgb(0,134,229)" />
    <sodipodi:guide
       position="277.473,960"
       orientation="0,1"
       id="guide2"
       inkscape:locked="false"
       inkscape:label=""
       inkscape:color="rgb(0,134,229)" />
  </sodipodi:namedview>
  <defs
     id="defs1" />
  <g
     inkscape:label="Calque 1"
     inkscape:groupmode="layer"
     id="layer1">
    <path
       id="path2"
       style="fill:none;fill-rule:evenodd;stroke:#00ff00"
       d="m 950.214,1607.86 c 0,0 117.086,-420.57 116.476,-647.853 C 1066.08,732.728 863.171,476.08 604.85,446.709 327.957,415.226 68.2648,618.695 36.7576,896.419 5.96569,1167.84 205.438,1422.38 477.689,1453.19 743.634,1483.29 993.023,1287.82 1023.14,1021.04 1052.56,760.571 861.075,516.334 599.772,486.904 344.775,458.184 105.69,645.668 76.9526,901.498 48.9236,1151.02 232.412,1384.95 482.767,1413 726.816,1440.34 955.598,1260.84 982.95,1015.96 1009.6,777.388 834.101,553.759 594.694,527.099 361.593,501.142 143.115,672.642 117.148,906.576 91.8809,1134.2 259.385,1347.53 487.846,1372.8 709.998,1397.38 918.173,1233.87 942.755,1010.88 966.641,794.206 807.128,591.183 589.615,567.294 378.411,544.098 180.538,699.615 157.343,911.654 134.837,1117.38 286.359,1310.11 492.924,1332.61 693.18,1354.42 880.75,1206.9 902.56,1005.81 923.685,811.024 780.155,628.605 584.537,607.489 395.229,587.054 217.961,726.589 197.538,916.733 177.793,1100.57 313.332,1272.68 498.002,1292.41 676.362,1311.47 843.328,1179.92 862.365,1000.73 880.73,827.842 753.181,666.027 579.459,647.684 412.047,630.008 255.382,753.562 237.733,921.811 220.746,1083.75 340.305,1235.26 503.081,1252.22 659.544,1268.52 805.909,1152.95 822.169,995.65 837.778,844.661 726.208,703.446 574.38,687.879 428.866,672.96 292.8,780.535 277.928,926.889 263.697,1066.93 367.278,1197.85 508.159,1212.02 642.725,1225.57 768.492,1125.98 781.974,990.572 794.828,861.48 699.235,740.862 569.302,728.074 445.684,715.908 330.215,807.508 318.123,931.968 306.645,1050.11 394.251,1160.43 513.237,1171.83 625.906,1182.62 731.08,1099.01 741.779,985.493 751.883,878.299 672.263,778.272 564.224,768.269 c -101.72,-9.417 -196.6,66.211 -205.906,168.777 -8.732,96.244 62.905,185.984 159.998,194.584 90.77,8.05 175.36,-59.6 183.268,-151.215 7.363,-85.295 -56.293,-164.742 -142.439,-171.95 -79.82,-6.68 -154.124,52.987 -160.632,133.659 -5.997,74.346 49.682,143.506 124.881,149.316 68.87,5.31 132.894,-46.38 137.995,-116.103 4.638,-63.395 -43.069,-122.283 -107.322,-126.677 -57.919,-3.961 -111.674,39.763 -115.359,98.543 -3.287,52.443 36.458,101.067 89.764,104.037 46.967,2.62 90.47,-33.15 92.722,-80.982 1.954,-41.49 -29.845,-79.878 -72.205,-81.403 -36.013,-1.297 -69.298,26.539 -70.086,63.426 -0.651,30.534 23.235,58.769 54.648,58.769 25.053,0 48.203,-19.934 47.448,-45.87 -0.57,-19.569 -16.638,-37.732 -37.089,-36.13 -14.076,1.102 -27.395,13.377 -24.811,28.309"
       sodipodi:nodetypes="czsssssssssssssssssssssssssssssssssssssssssssssscssc" />
  </g>
</svg>
