<?xml version="1.0" encoding="UTF-8" standalone="no"?>
<!-- Created with Inkscape (http://www.inkscape.org/) -->

<svg
   width="1080"
   height="1920"
   viewBox="0 0 1080 1920"
   version="1.1"
   id="svg1"
   inkscape:version="1.2.1 (9c6d41e, 2022-07-14)"
   sodipodi:docname="spiral3.svg"
   xmlns:inkscape="http://www.inkscape.org/namespaces/inkscape"
   xmlns:sodipodi="http://sodipodi.sourceforge.net/DTD/sodipodi-0.dtd"
   xmlns="http://www.w3.org/2000/svg"
   xmlns:svg="http://www.w3.org/2000/svg">
  <sodipodi:namedview
     id="namedview1"
     pagecolor="#505050"
     bordercolor="#ffffff"
     borderopacity="1"
     inkscape:showpageshadow="0"
     inkscape:pageopacity="0"
     inkscape:pagecheckerboard="1"
     inkscape:deskcolor="#262626"
     inkscape:document-units="mm"
     showguides="true"
     inkscape:zoom="1.1893"
     inkscape:cx="1003.53"
     inkscape:cy="1242.32"
     inkscape:window-width="1440"
     inkscape:window-height="2504"
     inkscape:window-x="0"
     inkscape:window-y="28"
     inkscape:window-maximized="1"
     inkscape:current-layer="layer1"
     showgrid="false">
    <sodipodi:guide
       position="540,1920"
       orientation="-1,0"
       id="guide1"
       inkscape:locked="false"
       inkscape:label=""
       inkscape:color="rgb(0,134,229)" />
    <sodipodi:guide
       position="277.473,960"
       orientation="0,1"
       id="guide2"
       inkscape:locked="false"
       inkscape:label=""
       inkscape:color="rgb(0,134,229)" />
  </sodipodi:namedview>
  <defs
     id="defs1" />
  <g
     inkscape:label="Calque 1"
     inkscape:groupmode="layer"
     id="layer1">
    <path
       id="path1"
       style="fill:none;fill-rule:evenodd;stroke:#ab37c8"
       d="M 1053.13,962.125 C 1053.13,710.527 872.052,513.233 635.847,472.851 374.961,428.251 116.267,605.941 71.6493,868.345 28.9533,1119.45 200.067,1368.37 452.689,1411.08 694.007,1451.87 933.168,1287.33 973.955,1044.49 1012.84,812.958 854.88,583.561 621.822,544.691 400.075,507.707 180.442,659.095 143.489,882.37 108.408,1094.33 253.221,1304.2 466.714,1339.24 668.892,1372.42 868.998,1234.18 902.115,1030.47 933.393,838.073 801.727,647.729 607.798,616.531 425.19,587.154 244.607,712.247 215.329,896.394 187.851,1069.22 306.373,1240.04 480.738,1267.4 643.775,1292.98 804.842,1181.03 830.276,1016.44 853.958,863.191 748.576,711.879 593.774,688.37 450.309,666.583 308.75,765.397 287.168,910.418 c -19.894,133.682 72.354,265.492 207.594,285.142 123.892,18 245.954,-67.68 263.674,-193.14 C 774.552,888.314 695.429,775.993 579.75,760.21 475.434,745.977 372.849,818.543 359.008,924.443 c -12.355,94.527 53.658,187.387 149.779,199.277 84.736,10.48 167.875,-48.98 177.809,-135.327 8.623,-74.944 -44.306,-148.382 -120.871,-156.344 -65.15,-6.774 -128.908,39.63 -134.878,106.418 -4.947,55.352 34.952,109.463 91.964,113.413 45.55,3.15 90.08,-30.28 91.946,-77.511 1.412,-35.737 -25.607,-70.798 -63.056,-70.48 -25.901,0.22 -51.756,20.978 -49.014,48.602 1.586,15.983 16.623,33.435 34.148,27.548"
       sodipodi:nodetypes="cssssssssssssssssssssssssssc" />
  </g>
</svg>
